<svg width="49" height="51" viewBox="0 0 49 51" fill="none" xmlns="http://www.w3.org/2000/svg">
<ellipse cx="24.0061" cy="24.4169" rx="23.0667" ry="23.6" fill="#4B2F23"/>
<ellipse cx="24.134" cy="24.5502" rx="20.8" ry="21.3333" fill="#FFE270"/>
<path fill-rule="evenodd" clip-rule="evenodd" d="M44.7874 32.9128C41.2603 41.2479 33.205 47.0728 23.8322 47.0728C14.4593 47.0728 6.40407 41.2479 2.87695 32.9128L44.7874 32.9128Z" fill="#4B2F23"/>
<rect x="0.136719" y="34.3288" width="48" height="12.272" rx="6.136" fill="#4B2F23"/>
<g filter="url(#filter0_d_2029_1164)">
<path d="M7.82013 42.2168L8.54457 37.8532H10.019C10.3599 37.8532 10.6291 37.9143 10.8265 38.0364C11.0254 38.1586 11.1596 38.3241 11.2292 38.5329C11.3002 38.7417 11.3145 38.9754 11.2718 39.2339C11.2292 39.4896 11.1376 39.7225 10.997 39.9328C10.8578 40.143 10.6689 40.3106 10.4302 40.4356C10.193 40.5606 9.90536 40.6231 9.56729 40.6231H8.51048L8.58718 40.1543H9.62695C9.85991 40.1543 10.0545 40.1139 10.2108 40.0329C10.367 39.9519 10.4892 39.8418 10.5772 39.7026C10.6653 39.5634 10.7235 39.4072 10.752 39.2339C10.7804 39.0578 10.7733 38.9015 10.7306 38.7651C10.6895 38.6274 10.6035 38.5194 10.4728 38.4413C10.3436 38.3617 10.161 38.322 9.92525 38.322H8.99627L8.34854 42.2168H7.82013ZM12.8757 37.8532L12.1513 42.2168H11.6229L12.3473 37.8532H12.8757ZM13.0659 42.2168L13.1341 41.8333L16.0659 38.322H13.688L13.7647 37.8532H16.7733L16.7136 38.2367L13.7733 41.7481H16.1511L16.0744 42.2168H13.0659ZM16.8159 42.2168L16.8841 41.8333L19.8159 38.322H17.438L17.5147 37.8532H20.5233L20.4636 38.2367L17.5233 41.7481H19.9011L19.8244 42.2168H16.8159ZM20.8897 42.2168H20.3358L22.6625 37.8532H23.2079L24.0858 42.2168H23.5318L22.8414 38.5435H22.8074L20.8897 42.2168ZM21.3755 40.5123H23.6085L23.5318 40.981H21.2988L21.3755 40.5123ZM24.6648 38.322L24.7415 37.8532H28.0142L27.9375 38.322H26.5653L25.9176 42.2168H25.3892L26.0369 38.322H24.6648ZM29.3581 37.8532L28.6337 42.2168H28.1053L28.8297 37.8532H29.3581ZM30.4176 37.8532H31.0483L31.9347 41.4754H31.9858L34.0653 37.8532H34.696L33.9716 42.2168H33.4773L34.0312 38.9015H33.9886L32.071 42.2168H31.5938L30.7841 38.9015H30.7415L30.1875 42.2168H29.6932L30.4176 37.8532ZM35.0311 42.2168L35.7555 37.8532H38.389L38.3123 38.322H36.2072L35.96 39.7964H37.9288L37.8521 40.2651H35.8833L35.6362 41.7481H37.7754L37.6987 42.2168H35.0311Z" fill="white"/>
</g>
<path d="M20.7654 9.77413L11.1315 36.4421" stroke="#4B2F23" stroke-width="1.5"/>
<path d="M10.9277 36.0821L36.5235 21.7907" stroke="#4B2F23" stroke-width="1.5"/>
<path d="M11.6038 36.4169C11.6038 36.6378 11.365 36.8169 11.0704 36.8169C10.7759 36.8169 10.5371 36.6378 10.5371 36.4169C10.5371 36.196 10.7759 36.0169 11.0704 36.0169C11.365 36.0169 11.6038 36.196 11.6038 36.4169Z" fill="#4B2F23"/>
<path d="M20.4023 10.1974C27.2595 12.0688 31.7902 14.7353 34.533 20.8172" stroke="#4B2F23" stroke-width="1.5"/>
<path d="M34.6736 20.6303C34.6736 20.6303 28.5021 24.7717 27.1306 25.5862C25.7591 26.4006 26.9022 29.8344 25.5307 30.3063C24.1592 30.7782 22.5558 29.2017 21.197 29.9235C19.8382 30.6452 21.1878 31.9106 20.2735 32.4302C19.3592 32.9497 18.2295 31.627 17.6515 31.9106C17.0736 32.1943 11.1307 36.4423 11.1307 36.4423" stroke="#4B2F23" stroke-width="1.5"/>
<path d="M36.495 21.8076C36.9335 21.5628 37.5399 21.0176 37.8409 20.882C39.9371 19.9375 39.0054 18.0484 37.608 17.8123C35.7447 17.5762 34.9653 18.6647 34.5033 20.5669M21.9902 6.96741C29.6763 8.62031 36.6763 14.0162 39.0054 18.9929" stroke="#4B2F23" stroke-width="1.5"/>
<path d="M20.7642 9.96379C20.339 8.50877 20.943 6.73002 22.006 6.97252" stroke="#4B2F23" stroke-width="1.5"/>
<path d="M37.9325 17.6126C37.2662 17.4558 35.182 17.1037 34.4142 19.9284C33.0524 17.2185 31.4458 15.3588 29.2967 13.7964C27.0636 12.1731 24.3304 11.0415 20.9463 10.0664C20.7379 9.132 20.9032 7.285 21.7727 7.20604C24.0499 7.49119 28.1306 9.08679 31.4678 11.3241C34.4396 13.3165 36.9538 15.8305 37.9325 17.6126Z" fill="#FF990B"/>
<path d="M33.5526 20.5107C31.152 22.0449 30.5013 23.3177 27.2878 25.3461C25.5622 26.1426 26.715 29.4373 25.6055 30.1388C24.5522 30.8047 22.5055 28.992 21.0929 29.8179C19.9376 30.4449 20.9053 32.1038 20.1944 32.3358C19.5858 32.9058 18.1938 31.3537 17.5036 31.8421C15.0191 33.6003 12.3472 35.1804 11.977 35.1804C11.3981 35.1804 20.054 12.4159 20.7539 10.5426C25.3698 11.3841 31.5197 14.8193 33.5526 20.5107Z" fill="#FFB921"/>
<path d="M38.6313 18.7659C38.9364 19.3498 38.9457 19.7105 38.3564 20.3156C37.9193 20.723 37.947 20.3994 37.2719 20.9324C36.8882 21.4859 26.8995 27.0431 26.5215 27.2539C26.6196 26.2253 26.8486 25.8618 27.3648 25.6074C28.8732 24.6297 29.6404 24.1441 30.9741 23.2521C31.4065 22.9629 32.9948 21.8783 34.743 20.6445C35.0574 19.3129 35.5948 18.4797 36.1663 18.2414C37.4431 17.7454 38.2383 18.1708 38.6313 18.7659Z" fill="#FF990B"/>
<path d="M24.784 28.5749C24.784 28.8449 24.7126 29.0736 24.602 29.2305C24.4926 29.3858 24.3492 29.4669 24.1916 29.4669C24.0393 29.4669 23.8643 29.3676 23.7203 29.1787C23.5785 28.9928 23.484 28.7402 23.484 28.4803C23.484 27.942 23.7961 27.6335 24.1163 27.6335C24.2716 27.6335 24.4359 27.7248 24.5673 27.8986C24.6975 28.071 24.784 28.3119 24.784 28.5749Z" fill="#D32D2D" stroke="#4B2F23" stroke-width="0.3"/>
<path d="M24.252 21.7537C24.252 22.018 24.1098 22.2789 23.8836 22.4783C23.6574 22.6776 23.3634 22.8002 23.0895 22.8002C22.8301 22.8002 22.5985 22.6639 22.4268 22.4447C22.2545 22.2246 22.152 21.9311 22.152 21.6463C22.152 21.3851 22.291 21.1512 22.5135 20.9776C22.7367 20.8034 23.0324 20.7002 23.3145 20.7002C23.845 20.7002 24.252 21.1795 24.252 21.7537Z" fill="#D32D2D" stroke="#4B2F23" stroke-width="0.3"/>
<path d="M30.9173 22.4348C30.9173 22.8909 30.6856 23.3147 30.3309 23.6281C29.9757 23.942 29.5096 24.1335 29.0655 24.1335C28.1884 24.1335 27.484 23.3794 27.484 22.4348C27.484 21.9806 27.7264 21.5477 28.0951 21.2238C28.4641 20.8998 28.9429 20.7002 29.3858 20.7002C30.254 20.7002 30.9173 21.4803 30.9173 22.4348Z" fill="#D32D2D" stroke="#4B2F23" stroke-width="0.3"/>
<path d="M19.4555 28.6818C19.4555 29.0988 19.1349 29.4933 18.6568 29.7941C18.1841 30.0916 17.603 30.2669 17.1716 30.2669C16.342 30.2669 15.7555 29.6072 15.7555 28.6818C15.7555 28.2569 16.0802 27.7961 16.5552 27.4298C17.0267 27.0662 17.5983 26.8335 18.0182 26.8335C18.4236 26.8335 18.7797 27.0527 19.0399 27.4008C19.3006 27.7496 19.4555 28.2174 19.4555 28.6818Z" fill="#D32D2D" stroke="#4B2F23" stroke-width="0.3"/>
<path d="M24.2534 15.29C24.2534 15.7669 23.9233 16.243 23.4385 16.6092C22.9561 16.9737 22.3573 17.2002 21.8844 17.2002C20.9677 17.2002 20.2867 16.3275 20.2867 15.29C20.2867 14.7961 20.5506 14.2805 20.9485 13.8843C21.347 13.4876 21.8565 13.2335 22.3187 13.2335C22.7793 13.2335 23.2636 13.4861 23.6371 13.8811C24.01 14.2754 24.2534 14.7918 24.2534 15.29Z" fill="#D32D2D" stroke="#4B2F23" stroke-width="0.3"/>
<path d="M29.8297 23.0203C29.8641 23.0791 29.8071 23.2288 29.6429 23.2825C29.5053 23.3685 29.4091 23.3846 29.3313 23.3318C29.2969 23.273 29.3521 23.1011 29.5191 23.0508C29.65 22.9376 29.7585 22.9786 29.8297 23.0203Z" fill="#4B2F23"/>
<path d="M17.6324 29.3684C17.6669 29.4272 17.6098 29.577 17.4457 29.6307C17.308 29.7167 17.2118 29.7328 17.1341 29.68C17.0996 29.6212 17.1548 29.4492 17.3218 29.399C17.4528 29.2858 17.5612 29.3268 17.6324 29.3684Z" fill="#4B2F23"/>
<path d="M29.1373 21.3278C29.1688 21.3815 29.1447 21.4564 29.0161 21.5366C28.9176 21.5982 28.8163 21.5813 28.7979 21.5225C28.765 21.4167 28.729 21.3466 28.8842 21.3115C28.9877 21.2881 29.0791 21.2855 29.1373 21.3278Z" fill="#4B2F23"/>
<path d="M18.4908 27.7362C18.5223 27.7899 18.4982 27.8647 18.3696 27.945C18.2711 28.0066 18.1698 27.9896 18.1514 27.9309C18.1185 27.8251 18.0825 27.755 18.2377 27.7198C18.3412 27.6964 18.4326 27.6939 18.4908 27.7362Z" fill="#4B2F23"/>
<path d="M30.2736 21.8941C30.2736 22.0355 30.2375 22.1502 30.0221 22.1502C29.8709 22.1229 29.7592 22.0717 29.7592 21.9303C29.705 21.7415 29.7592 21.5527 30.0221 21.6379C30.1924 21.6932 30.2736 21.7526 30.2736 21.8941Z" fill="#4B2F23"/>
<path d="M21.8714 14.8326C21.8069 14.921 21.7414 14.9823 21.6625 14.921C21.6197 14.861 21.6022 14.7972 21.6667 14.7088C21.733 14.5754 21.839 14.4728 21.8962 14.6009C21.9333 14.6839 21.9359 14.7442 21.8714 14.8326Z" fill="#4B2F23"/>
<path d="M22.6574 14.3435C22.665 14.4405 22.6826 14.4796 22.6032 14.4862C22.546 14.4722 22.502 14.4405 22.4944 14.3435C22.4944 14.2173 22.5282 14.1207 22.6298 14.171C22.6956 14.2037 22.6498 14.2465 22.6574 14.3435Z" fill="#4B2F23"/>
<path d="M23.2459 15.6445C23.2535 15.7415 23.2445 15.8209 23.1651 15.8275C23.1079 15.8135 23.0639 15.7818 23.0563 15.6848C23.0563 15.5586 23.076 15.524 23.139 15.4986C23.1872 15.4791 23.2383 15.5475 23.2459 15.6445Z" fill="#4B2F23"/>
<path d="M22.4304 14.865C22.3801 14.9473 22.3715 14.9895 22.3041 14.9455C22.2665 14.8988 22.2498 14.8462 22.3002 14.764C22.3736 14.663 22.4569 14.6067 22.5087 14.71C22.5424 14.7769 22.4808 14.7828 22.4304 14.865Z" fill="#4B2F23"/>
<path d="M22.1441 16.2701C22.0937 16.3524 22.0405 16.4103 21.9731 16.3663C21.9355 16.3196 21.9188 16.267 21.9691 16.1848C22.0426 16.0838 22.0784 16.0685 22.1436 16.0872C22.1934 16.1015 22.1945 16.1879 22.1441 16.2701Z" fill="#4B2F23"/>
<ellipse cx="13.6051" cy="33.0835" rx="0.4" ry="0.533333" fill="white"/>
<ellipse cx="20.8023" cy="28.1502" rx="0.4" ry="0.133333" fill="white"/>
<ellipse cx="16.8023" cy="25.2169" rx="0.4" ry="0.666667" fill="white"/>
<ellipse cx="19.4694" cy="19.4836" rx="0.666667" ry="0.533333" fill="white"/>
<ellipse cx="24.5367" cy="25.2169" rx="0.4" ry="0.666667" fill="white"/>
<ellipse cx="31.2017" cy="18.6835" rx="0.133333" ry="0.266667" fill="white"/>
<ellipse cx="32.2711" cy="20.6835" rx="0.4" ry="0.666667" fill="white"/>
<circle cx="26.1363" cy="14.8169" r="0.4" fill="white"/>
<path d="M21.5413 23.7707C21.6895 23.9805 21.7956 24.1436 21.8664 24.2761C21.9375 24.4094 21.9686 24.5043 21.9747 24.5787C21.9857 24.7128 21.9186 24.8128 21.7265 25.0019C21.5153 25.127 21.2593 25.0502 21.0175 24.8825C20.8983 24.7997 20.7906 24.7 20.7066 24.6075C20.621 24.5132 20.5656 24.4328 20.5456 24.3903C20.4892 24.2707 20.417 24.1617 20.3409 24.0481C20.3365 24.0416 20.3321 24.035 20.3276 24.0284C20.2545 23.9194 20.1763 23.8028 20.0963 23.6596C19.9675 23.429 19.9418 23.2275 19.9165 23.0292C19.9159 23.0245 19.9153 23.0198 19.9147 23.015C20.1123 23.0513 20.3828 23.102 20.6586 23.1948C21.0061 23.3117 21.3428 23.4897 21.5413 23.7707Z" fill="#246B12" stroke="#4B2F23" stroke-width="0.2"/>
<path d="M21.9139 24.7887C22.1159 25.0198 22.132 25.0596 22.1159 25.1205C22.0498 25.1463 21.8976 25.0893 21.857 25.0301C21.7772 24.8394 20.6739 23.6769 20.6739 23.6268C20.7063 23.5995 21.7734 24.5982 21.9139 24.7887Z" fill="#4B2F23"/>
<path d="M28.2574 17.9172C28.0497 18.0636 27.8886 18.168 27.7582 18.2368C27.6271 18.3059 27.5345 18.3351 27.4623 18.339C27.3321 18.3462 27.237 18.2735 27.0597 18.069C26.9446 17.8464 27.0274 17.5846 27.1969 17.3408C27.2807 17.2204 27.3805 17.1125 27.4726 17.0288C27.5665 16.9434 27.6459 16.8889 27.6874 16.8696C27.805 16.8151 27.913 16.744 28.0253 16.6689C28.0317 16.6646 28.0382 16.6603 28.0447 16.6559C28.1526 16.5838 28.2678 16.5067 28.4088 16.4287C28.6358 16.3032 28.8314 16.2829 29.0241 16.263C29.0292 16.2625 29.0343 16.262 29.0393 16.2614C28.998 16.4643 28.9405 16.7425 28.8418 17.0249C28.7178 17.3799 28.5351 17.7214 28.2574 17.9172Z" fill="#246B12" stroke="#4B2F23" stroke-width="0.2"/>
<path d="M27.2565 18.2704C27.0265 18.4716 26.9874 18.487 26.929 18.4685C26.9061 18.3995 26.966 18.2441 27.0246 18.2041C27.2117 18.1277 28.3715 17.0254 28.42 17.0269C28.4454 17.0612 27.4453 18.1313 27.2565 18.2704Z" fill="#4B2F23"/>
<path d="M25.5088 21.6911C25.3957 21.4592 25.3167 21.2804 25.2678 21.1376C25.2187 20.994 25.2029 20.895 25.2086 20.8204C25.219 20.6864 25.3007 20.5993 25.5198 20.4453C25.7474 20.3577 25.9877 20.4762 26.2001 20.6827C26.3048 20.7845 26.3953 20.9012 26.4636 21.0067C26.5332 21.1141 26.5753 21.2029 26.5884 21.2484C26.6251 21.3757 26.6791 21.4954 26.7362 21.6203C26.7395 21.6275 26.7429 21.6347 26.7462 21.6419C26.8012 21.7618 26.8599 21.89 26.9162 22.0448C27.0069 22.2943 27.0005 22.4977 26.9941 22.6976C26.994 22.7019 26.9938 22.7063 26.9937 22.7107C26.8046 22.6417 26.5462 22.5462 26.2893 22.4085C25.9649 22.2346 25.6605 22.0022 25.5088 21.6911Z" fill="#246B12" stroke="#4B2F23" stroke-width="0.2"/>
<path d="M25.2981 20.6243C25.1354 20.3623 25.1258 20.3203 25.1513 20.263C25.2205 20.2487 25.3617 20.3305 25.3925 20.3957C25.4411 20.5973 26.346 21.93 26.3381 21.9795C26.3018 22.0009 25.4067 20.836 25.2981 20.6243Z" fill="#4B2F23"/>
<defs>
<filter id="filter0_d_2029_1164" x="3.82031" y="37.8532" width="38.5684" height="12.3636" filterUnits="userSpaceOnUse" color-interpolation-filters="sRGB">
<feFlood flood-opacity="0" result="BackgroundImageFix"/>
<feColorMatrix in="SourceAlpha" type="matrix" values="0 0 0 0 0 0 0 0 0 0 0 0 0 0 0 0 0 0 127 0" result="hardAlpha"/>
<feOffset dy="4"/>
<feGaussianBlur stdDeviation="2"/>
<feComposite in2="hardAlpha" operator="out"/>
<feColorMatrix type="matrix" values="0 0 0 0 0 0 0 0 0 0 0 0 0 0 0 0 0 0 0.25 0"/>
<feBlend mode="normal" in2="BackgroundImageFix" result="effect1_dropShadow_2029_1164"/>
<feBlend mode="normal" in="SourceGraphic" in2="effect1_dropShadow_2029_1164" result="shape"/>
</filter>
</defs>
</svg>
